<mxfile host="app.diagrams.net" agent="Mozilla/5.0 (Windows NT 10.0; Win64; x64) AppleWebKit/537.36 (KHTML, like Gecko) Chrome/141.0.0.0 Safari/537.36 Edg/141.0.0.0" version="28.2.8">
  <diagram name="Page-1" id="2YBvvXClWsGukQMizWep">
    <mxGraphModel dx="1418" dy="794" grid="1" gridSize="10" guides="1" tooltips="1" connect="1" arrows="1" fold="1" page="1" pageScale="1" pageWidth="850" pageHeight="1100" math="0" shadow="0">
      <root>
        <mxCell id="0" />
        <mxCell id="1" parent="0" />
        <mxCell id="aM9ryv3xv72pqoxQDRHE-1" value=":GUI" style="shape=umlLifeline;perimeter=lifelinePerimeter;whiteSpace=wrap;html=1;container=0;dropTarget=0;collapsible=0;recursiveResize=0;outlineConnect=0;portConstraint=eastwest;newEdgeStyle={&quot;edgeStyle&quot;:&quot;elbowEdgeStyle&quot;,&quot;elbow&quot;:&quot;vertical&quot;,&quot;curved&quot;:0,&quot;rounded&quot;:0};" parent="1" vertex="1">
          <mxGeometry x="111" y="48" width="100" height="952" as="geometry" />
        </mxCell>
        <mxCell id="aM9ryv3xv72pqoxQDRHE-2" value="" style="html=1;points=[];perimeter=orthogonalPerimeter;outlineConnect=0;targetShapes=umlLifeline;portConstraint=eastwest;newEdgeStyle={&quot;edgeStyle&quot;:&quot;elbowEdgeStyle&quot;,&quot;elbow&quot;:&quot;vertical&quot;,&quot;curved&quot;:0,&quot;rounded&quot;:0};" parent="aM9ryv3xv72pqoxQDRHE-1" vertex="1">
          <mxGeometry x="45" y="70" width="10" height="840" as="geometry" />
        </mxCell>
        <mxCell id="aM9ryv3xv72pqoxQDRHE-3" value="dispatch" style="html=1;verticalAlign=bottom;startArrow=oval;endArrow=block;startSize=8;edgeStyle=elbowEdgeStyle;elbow=vertical;curved=0;rounded=0;" parent="aM9ryv3xv72pqoxQDRHE-1" target="aM9ryv3xv72pqoxQDRHE-2" edge="1">
          <mxGeometry relative="1" as="geometry">
            <mxPoint x="-15" y="70" as="sourcePoint" />
          </mxGeometry>
        </mxCell>
        <mxCell id="aM9ryv3xv72pqoxQDRHE-5" value=":ControllerClass" style="shape=umlLifeline;perimeter=lifelinePerimeter;whiteSpace=wrap;html=1;container=0;dropTarget=0;collapsible=0;recursiveResize=0;outlineConnect=0;portConstraint=eastwest;newEdgeStyle={&quot;edgeStyle&quot;:&quot;elbowEdgeStyle&quot;,&quot;elbow&quot;:&quot;vertical&quot;,&quot;curved&quot;:0,&quot;rounded&quot;:0};" parent="1" vertex="1">
          <mxGeometry x="354" y="48" width="100" height="952" as="geometry" />
        </mxCell>
        <mxCell id="aM9ryv3xv72pqoxQDRHE-6" value="" style="html=1;points=[];perimeter=orthogonalPerimeter;outlineConnect=0;targetShapes=umlLifeline;portConstraint=eastwest;newEdgeStyle={&quot;edgeStyle&quot;:&quot;elbowEdgeStyle&quot;,&quot;elbow&quot;:&quot;vertical&quot;,&quot;curved&quot;:0,&quot;rounded&quot;:0};" parent="aM9ryv3xv72pqoxQDRHE-5" vertex="1">
          <mxGeometry x="45" y="112" width="10" height="798" as="geometry" />
        </mxCell>
        <mxCell id="aM9ryv3xv72pqoxQDRHE-7" value="" style="html=1;verticalAlign=bottom;endArrow=block;edgeStyle=elbowEdgeStyle;elbow=vertical;curved=0;rounded=0;" parent="1" edge="1">
          <mxGeometry relative="1" as="geometry">
            <mxPoint x="166" y="160" as="sourcePoint" />
            <Array as="points">
              <mxPoint x="209" y="160" />
              <mxPoint x="251" y="140" />
            </Array>
            <mxPoint x="399" y="160" as="targetPoint" />
          </mxGeometry>
        </mxCell>
        <mxCell id="0jZ7-tW0BVTjiJO53gmQ-3" value="selectBooking|()" style="edgeLabel;html=1;align=center;verticalAlign=middle;resizable=0;points=[];" parent="aM9ryv3xv72pqoxQDRHE-7" vertex="1" connectable="0">
          <mxGeometry x="-0.0645" y="3" relative="1" as="geometry">
            <mxPoint y="-7" as="offset" />
          </mxGeometry>
        </mxCell>
        <mxCell id="VEuW4mEXxXxEv6BpwXh5-1" value="Customer" style="shape=umlActor;verticalLabelPosition=bottom;verticalAlign=top;html=1;" parent="1" vertex="1">
          <mxGeometry x="59" y="78" width="30" height="62" as="geometry" />
        </mxCell>
        <mxCell id="VEuW4mEXxXxEv6BpwXh5-5" value=":Schedule" style="shape=umlLifeline;perimeter=lifelinePerimeter;whiteSpace=wrap;html=1;container=0;dropTarget=0;collapsible=0;recursiveResize=0;outlineConnect=0;portConstraint=eastwest;newEdgeStyle={&quot;edgeStyle&quot;:&quot;elbowEdgeStyle&quot;,&quot;elbow&quot;:&quot;vertical&quot;,&quot;curved&quot;:0,&quot;rounded&quot;:0};" parent="1" vertex="1">
          <mxGeometry x="739" y="48" width="120" height="952" as="geometry" />
        </mxCell>
        <mxCell id="VEuW4mEXxXxEv6BpwXh5-6" value="" style="html=1;points=[];perimeter=orthogonalPerimeter;outlineConnect=0;targetShapes=umlLifeline;portConstraint=eastwest;newEdgeStyle={&quot;edgeStyle&quot;:&quot;elbowEdgeStyle&quot;,&quot;elbow&quot;:&quot;vertical&quot;,&quot;curved&quot;:0,&quot;rounded&quot;:0};" parent="VEuW4mEXxXxEv6BpwXh5-5" vertex="1">
          <mxGeometry x="55" y="190" width="10" height="720" as="geometry" />
        </mxCell>
        <mxCell id="0jZ7-tW0BVTjiJO53gmQ-1" value=":DB" style="shape=umlLifeline;perimeter=lifelinePerimeter;whiteSpace=wrap;html=1;container=0;dropTarget=0;collapsible=0;recursiveResize=0;outlineConnect=0;portConstraint=eastwest;newEdgeStyle={&quot;edgeStyle&quot;:&quot;elbowEdgeStyle&quot;,&quot;elbow&quot;:&quot;vertical&quot;,&quot;curved&quot;:0,&quot;rounded&quot;:0};" parent="1" vertex="1">
          <mxGeometry x="1068" y="48" width="120" height="951" as="geometry" />
        </mxCell>
        <mxCell id="0jZ7-tW0BVTjiJO53gmQ-4" value=":Booking" style="shape=umlLifeline;perimeter=lifelinePerimeter;whiteSpace=wrap;html=1;container=0;dropTarget=0;collapsible=0;recursiveResize=0;outlineConnect=0;portConstraint=eastwest;newEdgeStyle={&quot;edgeStyle&quot;:&quot;elbowEdgeStyle&quot;,&quot;elbow&quot;:&quot;vertical&quot;,&quot;curved&quot;:0,&quot;rounded&quot;:0};" parent="1" vertex="1">
          <mxGeometry x="549" y="48" width="120" height="952" as="geometry" />
        </mxCell>
        <mxCell id="0jZ7-tW0BVTjiJO53gmQ-5" value="" style="html=1;points=[];perimeter=orthogonalPerimeter;outlineConnect=0;targetShapes=umlLifeline;portConstraint=eastwest;newEdgeStyle={&quot;edgeStyle&quot;:&quot;elbowEdgeStyle&quot;,&quot;elbow&quot;:&quot;vertical&quot;,&quot;curved&quot;:0,&quot;rounded&quot;:0};" parent="0jZ7-tW0BVTjiJO53gmQ-4" vertex="1">
          <mxGeometry x="55" y="150" width="10" height="760" as="geometry" />
        </mxCell>
        <mxCell id="0jZ7-tW0BVTjiJO53gmQ-28" value="" style="swimlane;startSize=0;" parent="1" vertex="1">
          <mxGeometry x="129" y="357" width="1030" height="611" as="geometry" />
        </mxCell>
        <mxCell id="EJbwKhiUwv7nrLsNbU0W-18" value="&lt;span style=&quot;text-wrap-mode: nowrap; background-color: rgb(255, 255, 255);&quot;&gt;If departure has occured&lt;/span&gt;" style="text;whiteSpace=wrap;html=1;fontSize=12;align=center;" parent="0jZ7-tW0BVTjiJO53gmQ-28" vertex="1">
          <mxGeometry x="51" y="4" width="130" height="40" as="geometry" />
        </mxCell>
        <mxCell id="BeFSrIk958UR365Rvj6z-9" value="v" style="html=1;verticalAlign=bottom;endArrow=block;edgeStyle=elbowEdgeStyle;elbow=vertical;curved=0;rounded=0;" parent="0jZ7-tW0BVTjiJO53gmQ-28" edge="1">
          <mxGeometry relative="1" as="geometry">
            <mxPoint x="280" y="242.99999999999977" as="sourcePoint" />
            <Array as="points">
              <mxPoint x="320" y="243" />
              <mxPoint x="362" y="223" />
            </Array>
            <mxPoint x="836.5" y="243" as="targetPoint" />
          </mxGeometry>
        </mxCell>
        <mxCell id="BeFSrIk958UR365Rvj6z-10" value="checkRefundEligibility()" style="edgeLabel;html=1;align=center;verticalAlign=middle;resizable=0;points=[];" parent="BeFSrIk958UR365Rvj6z-9" vertex="1" connectable="0">
          <mxGeometry x="-0.0645" y="3" relative="1" as="geometry">
            <mxPoint x="19" y="-7" as="offset" />
          </mxGeometry>
        </mxCell>
        <mxCell id="0jZ7-tW0BVTjiJO53gmQ-56" value="" style="line;strokeWidth=1;html=1;" parent="0jZ7-tW0BVTjiJO53gmQ-28" vertex="1">
          <mxGeometry y="73" width="1030" height="10" as="geometry" />
        </mxCell>
        <mxCell id="U9XzbLY1-AbpNYxQL2TC-7" value="display &quot;Error! Ticket cannot be canceled after departure.&quot;" style="html=1;verticalAlign=bottom;endArrow=open;dashed=1;endSize=8;edgeStyle=elbowEdgeStyle;elbow=vertical;curved=0;rounded=0;fontSize=8;" parent="0jZ7-tW0BVTjiJO53gmQ-28" edge="1">
          <mxGeometry relative="1" as="geometry">
            <mxPoint x="37" y="54.000000000000114" as="targetPoint" />
            <Array as="points">
              <mxPoint x="135" y="54" />
            </Array>
            <mxPoint x="270" y="54" as="sourcePoint" />
          </mxGeometry>
        </mxCell>
        <mxCell id="U9XzbLY1-AbpNYxQL2TC-8" value="" style="html=1;verticalAlign=bottom;endArrow=block;edgeStyle=elbowEdgeStyle;elbow=vertical;curved=0;rounded=0;" parent="0jZ7-tW0BVTjiJO53gmQ-28" edge="1">
          <mxGeometry relative="1" as="geometry">
            <mxPoint x="280" y="163" as="sourcePoint" />
            <Array as="points">
              <mxPoint x="323" y="163" />
              <mxPoint x="365" y="143" />
            </Array>
            <mxPoint x="475" y="163" as="targetPoint" />
          </mxGeometry>
        </mxCell>
        <mxCell id="U9XzbLY1-AbpNYxQL2TC-9" value="cancelTicket()" style="edgeLabel;html=1;align=center;verticalAlign=middle;resizable=0;points=[];" parent="U9XzbLY1-AbpNYxQL2TC-8" vertex="1" connectable="0">
          <mxGeometry x="-0.0645" y="3" relative="1" as="geometry">
            <mxPoint y="-7" as="offset" />
          </mxGeometry>
        </mxCell>
        <mxCell id="U9XzbLY1-AbpNYxQL2TC-18" value="" style="html=1;verticalAlign=bottom;endArrow=block;edgeStyle=elbowEdgeStyle;elbow=vertical;curved=0;rounded=0;" parent="0jZ7-tW0BVTjiJO53gmQ-28" edge="1">
          <mxGeometry relative="1" as="geometry">
            <mxPoint x="37" y="121" as="sourcePoint" />
            <Array as="points">
              <mxPoint x="80" y="121" />
              <mxPoint x="122" y="101" />
            </Array>
            <mxPoint x="270" y="121" as="targetPoint" />
          </mxGeometry>
        </mxCell>
        <mxCell id="U9XzbLY1-AbpNYxQL2TC-19" value="confirmCancellation()" style="edgeLabel;html=1;align=center;verticalAlign=middle;resizable=0;points=[];" parent="U9XzbLY1-AbpNYxQL2TC-18" vertex="1" connectable="0">
          <mxGeometry x="-0.0645" y="3" relative="1" as="geometry">
            <mxPoint y="-7" as="offset" />
          </mxGeometry>
        </mxCell>
        <mxCell id="U9XzbLY1-AbpNYxQL2TC-20" value="&lt;span style=&quot;text-wrap-mode: nowrap; background-color: rgb(255, 255, 255);&quot;&gt;else&lt;/span&gt;" style="text;whiteSpace=wrap;html=1;fontSize=12;align=center;" parent="0jZ7-tW0BVTjiJO53gmQ-28" vertex="1">
          <mxGeometry x="3" y="81" width="130" height="40" as="geometry" />
        </mxCell>
        <mxCell id="U9XzbLY1-AbpNYxQL2TC-30" value="display &quot;Ticket has been cancelled&lt;div&gt;and refund has been provided.&lt;span style=&quot;background-color: light-dark(#ffffff, var(--ge-dark-color, #121212)); color: light-dark(rgb(0, 0, 0), rgb(255, 255, 255));&quot;&gt;&quot;&lt;/span&gt;&lt;/div&gt;" style="html=1;verticalAlign=bottom;endArrow=open;dashed=1;endSize=8;edgeStyle=elbowEdgeStyle;elbow=vertical;curved=0;rounded=0;" parent="0jZ7-tW0BVTjiJO53gmQ-28" edge="1">
          <mxGeometry relative="1" as="geometry">
            <mxPoint x="35" y="441.0000000000001" as="targetPoint" />
            <Array as="points">
              <mxPoint x="133" y="441" />
            </Array>
            <mxPoint x="268" y="441" as="sourcePoint" />
          </mxGeometry>
        </mxCell>
        <mxCell id="U9XzbLY1-AbpNYxQL2TC-31" value="" style="swimlane;startSize=0;" parent="0jZ7-tW0BVTjiJO53gmQ-28" vertex="1">
          <mxGeometry x="250" y="310" width="640" height="260" as="geometry" />
        </mxCell>
        <mxCell id="U9XzbLY1-AbpNYxQL2TC-32" value="&lt;span style=&quot;text-wrap-mode: nowrap; background-color: rgb(255, 255, 255);&quot;&gt;If refund is eligible&lt;/span&gt;" style="text;whiteSpace=wrap;html=1;fontSize=14;align=left;" parent="U9XzbLY1-AbpNYxQL2TC-31" vertex="1">
          <mxGeometry x="31" y="11" width="216" height="49" as="geometry" />
        </mxCell>
        <mxCell id="U9XzbLY1-AbpNYxQL2TC-33" value="&lt;div style=&quot;&quot;&gt;&lt;span style=&quot;text-wrap-mode: nowrap; background-color: rgb(255, 255, 255);&quot;&gt;else&lt;/span&gt;&lt;/div&gt;" style="text;whiteSpace=wrap;html=1;fontSize=14;align=center;" parent="U9XzbLY1-AbpNYxQL2TC-31" vertex="1">
          <mxGeometry y="165" width="130" height="40" as="geometry" />
        </mxCell>
        <mxCell id="U9XzbLY1-AbpNYxQL2TC-37" value="" style="line;strokeWidth=1;html=1;" parent="U9XzbLY1-AbpNYxQL2TC-31" vertex="1">
          <mxGeometry y="165" width="640" height="10" as="geometry" />
        </mxCell>
        <mxCell id="WeA55Ndx4WamOBbakFeb-14" value="v" style="html=1;verticalAlign=bottom;endArrow=block;edgeStyle=elbowEdgeStyle;elbow=vertical;curved=0;rounded=0;" parent="U9XzbLY1-AbpNYxQL2TC-31" edge="1">
          <mxGeometry relative="1" as="geometry">
            <mxPoint x="29" y="52.99999999999977" as="sourcePoint" />
            <Array as="points">
              <mxPoint x="69" y="53" />
              <mxPoint x="111" y="33" />
            </Array>
            <mxPoint x="585.5" y="53" as="targetPoint" />
          </mxGeometry>
        </mxCell>
        <mxCell id="WeA55Ndx4WamOBbakFeb-15" value="processRefund()" style="edgeLabel;html=1;align=center;verticalAlign=middle;resizable=0;points=[];" parent="WeA55Ndx4WamOBbakFeb-14" vertex="1" connectable="0">
          <mxGeometry x="-0.0645" y="3" relative="1" as="geometry">
            <mxPoint x="19" y="-7" as="offset" />
          </mxGeometry>
        </mxCell>
        <mxCell id="WeA55Ndx4WamOBbakFeb-16" value="return Amount" style="html=1;verticalAlign=bottom;endArrow=open;dashed=1;endSize=8;edgeStyle=elbowEdgeStyle;elbow=horizontal;curved=0;rounded=0;" parent="U9XzbLY1-AbpNYxQL2TC-31" edge="1">
          <mxGeometry relative="1" as="geometry">
            <mxPoint x="31" y="92" as="targetPoint" />
            <Array as="points">
              <mxPoint x="442" y="92.00000000000023" />
            </Array>
            <mxPoint x="587" y="92.00000000000023" as="sourcePoint" />
          </mxGeometry>
        </mxCell>
        <mxCell id="EJbwKhiUwv7nrLsNbU0W-14" value="" style="html=1;points=[];perimeter=orthogonalPerimeter;outlineConnect=0;targetShapes=umlLifeline;portConstraint=eastwest;newEdgeStyle={&quot;edgeStyle&quot;:&quot;elbowEdgeStyle&quot;,&quot;elbow&quot;:&quot;vertical&quot;,&quot;curved&quot;:0,&quot;rounded&quot;:0};" parent="0jZ7-tW0BVTjiJO53gmQ-28" vertex="1">
          <mxGeometry x="994" y="200" width="10" height="50" as="geometry" />
        </mxCell>
        <mxCell id="WeA55Ndx4WamOBbakFeb-12" value="v" style="html=1;verticalAlign=bottom;endArrow=block;edgeStyle=elbowEdgeStyle;elbow=vertical;curved=0;rounded=0;" parent="0jZ7-tW0BVTjiJO53gmQ-28" target="EJbwKhiUwv7nrLsNbU0W-14" edge="1">
          <mxGeometry relative="1" as="geometry">
            <mxPoint x="281" y="202.99999999999977" as="sourcePoint" />
            <Array as="points">
              <mxPoint x="321" y="203" />
              <mxPoint x="363" y="183" />
            </Array>
            <mxPoint x="831" y="203" as="targetPoint" />
          </mxGeometry>
        </mxCell>
        <mxCell id="WeA55Ndx4WamOBbakFeb-13" value="removeTicketEntry()" style="edgeLabel;html=1;align=center;verticalAlign=middle;resizable=0;points=[];" parent="WeA55Ndx4WamOBbakFeb-12" vertex="1" connectable="0">
          <mxGeometry x="-0.0645" y="3" relative="1" as="geometry">
            <mxPoint x="19" y="-7" as="offset" />
          </mxGeometry>
        </mxCell>
        <mxCell id="WeA55Ndx4WamOBbakFeb-17" value="display &quot;Refund Not Avalibale&lt;span style=&quot;background-color: light-dark(#ffffff, var(--ge-dark-color, #121212)); color: light-dark(rgb(0, 0, 0), rgb(255, 255, 255));&quot;&gt;.&lt;/span&gt;&lt;span style=&quot;color: light-dark(rgb(0, 0, 0), rgb(255, 255, 255)); background-color: light-dark(#ffffff, var(--ge-dark-color, #121212));&quot;&gt;&quot;&lt;/span&gt;" style="html=1;verticalAlign=bottom;endArrow=open;dashed=1;endSize=8;edgeStyle=elbowEdgeStyle;elbow=vertical;curved=0;rounded=0;" parent="0jZ7-tW0BVTjiJO53gmQ-28" edge="1">
          <mxGeometry relative="1" as="geometry">
            <mxPoint x="36" y="523.0000000000001" as="targetPoint" />
            <Array as="points">
              <mxPoint x="134" y="523" />
            </Array>
            <mxPoint x="269" y="523" as="sourcePoint" />
          </mxGeometry>
        </mxCell>
        <mxCell id="U9XzbLY1-AbpNYxQL2TC-10" value=":Payment" style="shape=umlLifeline;perimeter=lifelinePerimeter;whiteSpace=wrap;html=1;container=0;dropTarget=0;collapsible=0;recursiveResize=0;outlineConnect=0;portConstraint=eastwest;newEdgeStyle={&quot;edgeStyle&quot;:&quot;elbowEdgeStyle&quot;,&quot;elbow&quot;:&quot;vertical&quot;,&quot;curved&quot;:0,&quot;rounded&quot;:0};" parent="1" vertex="1">
          <mxGeometry x="910" y="48" width="120" height="952" as="geometry" />
        </mxCell>
        <mxCell id="U9XzbLY1-AbpNYxQL2TC-11" value="" style="html=1;points=[];perimeter=orthogonalPerimeter;outlineConnect=0;targetShapes=umlLifeline;portConstraint=eastwest;newEdgeStyle={&quot;edgeStyle&quot;:&quot;elbowEdgeStyle&quot;,&quot;elbow&quot;:&quot;vertical&quot;,&quot;curved&quot;:0,&quot;rounded&quot;:0};" parent="U9XzbLY1-AbpNYxQL2TC-10" vertex="1">
          <mxGeometry x="55" y="552" width="10" height="168" as="geometry" />
        </mxCell>
        <mxCell id="WeA55Ndx4WamOBbakFeb-1" value="" style="html=1;verticalAlign=bottom;endArrow=block;edgeStyle=elbowEdgeStyle;elbow=vertical;curved=0;rounded=0;" parent="1" edge="1">
          <mxGeometry relative="1" as="geometry">
            <mxPoint x="409" y="200" as="sourcePoint" />
            <Array as="points">
              <mxPoint x="450" y="200" />
              <mxPoint x="492" y="180" />
            </Array>
            <mxPoint x="605.5" y="200" as="targetPoint" />
          </mxGeometry>
        </mxCell>
        <mxCell id="WeA55Ndx4WamOBbakFeb-2" value="checkDepartureStatus()" style="edgeLabel;html=1;align=center;verticalAlign=middle;resizable=0;points=[];" parent="WeA55Ndx4WamOBbakFeb-1" vertex="1" connectable="0">
          <mxGeometry x="-0.0645" y="3" relative="1" as="geometry">
            <mxPoint y="-7" as="offset" />
          </mxGeometry>
        </mxCell>
        <mxCell id="WeA55Ndx4WamOBbakFeb-5" value="return ScheduleStatus" style="html=1;verticalAlign=bottom;endArrow=open;dashed=1;endSize=8;edgeStyle=elbowEdgeStyle;elbow=vertical;curved=0;rounded=0;" parent="1" edge="1">
          <mxGeometry relative="1" as="geometry">
            <mxPoint x="613.5" y="280" as="targetPoint" />
            <Array as="points" />
            <mxPoint x="794" y="280" as="sourcePoint" />
          </mxGeometry>
        </mxCell>
        <mxCell id="WeA55Ndx4WamOBbakFeb-6" value="" style="html=1;verticalAlign=bottom;endArrow=block;edgeStyle=elbowEdgeStyle;elbow=horizontal;curved=0;rounded=0;" parent="1" edge="1">
          <mxGeometry relative="1" as="geometry">
            <mxPoint x="614" y="240" as="sourcePoint" />
            <Array as="points">
              <mxPoint x="657" y="240" />
              <mxPoint x="699" y="220" />
            </Array>
            <mxPoint x="794" y="240" as="targetPoint" />
          </mxGeometry>
        </mxCell>
        <mxCell id="WeA55Ndx4WamOBbakFeb-7" value="checkScheduleStatus(DepartureTime,routeID)" style="edgeLabel;html=1;align=center;verticalAlign=middle;resizable=0;points=[];fontSize=8;" parent="WeA55Ndx4WamOBbakFeb-6" vertex="1" connectable="0">
          <mxGeometry x="-0.0645" y="3" relative="1" as="geometry">
            <mxPoint x="2" y="-7" as="offset" />
          </mxGeometry>
        </mxCell>
        <mxCell id="WeA55Ndx4WamOBbakFeb-8" value="return DepartureStatus" style="html=1;verticalAlign=bottom;endArrow=open;dashed=1;endSize=8;edgeStyle=elbowEdgeStyle;elbow=vertical;curved=0;rounded=0;" parent="1" source="0jZ7-tW0BVTjiJO53gmQ-5" edge="1">
          <mxGeometry relative="1" as="geometry">
            <mxPoint x="408" y="320" as="targetPoint" />
            <Array as="points" />
            <mxPoint x="600" y="320" as="sourcePoint" />
          </mxGeometry>
        </mxCell>
        <mxCell id="U9XzbLY1-AbpNYxQL2TC-36" value="return true/false" style="html=1;verticalAlign=bottom;endArrow=open;dashed=1;endSize=8;edgeStyle=elbowEdgeStyle;elbow=horizontal;curved=0;rounded=0;" parent="1" source="U9XzbLY1-AbpNYxQL2TC-11" edge="1">
          <mxGeometry relative="1" as="geometry">
            <mxPoint x="409" y="639.9999999999998" as="targetPoint" />
            <Array as="points">
              <mxPoint x="820" y="640" />
            </Array>
            <mxPoint x="959.5" y="640" as="sourcePoint" />
          </mxGeometry>
        </mxCell>
      </root>
    </mxGraphModel>
  </diagram>
</mxfile>
